# xmcd
#
# Track frame offsets:
#	182
#	14202
#	27142
#	45855
#	59187
#	72630
#	85870
#	96215
#	108395
#	124230
#	137895
#	150940
#
# Disc length: 2168 seconds
#
# Revision: 0
# Processed by: cddbd v1.4PL0 Copyright (c) Steve Scherf et al.
# Submitted via: dBpowerAMP V4.0
#
DISCID=a508760c
DTITLE=Tom T. Hall - Singing Storyteller #3
DYEAR=1900
DGENRE=country
TTITLE0=Shoeshine man
TTITLE1=Strawberry Farms
TTITLE2=She Gave Her heart To Hethro
TTITLE3=The Ballad of Bill Crump
TTITLE4=The Little lady Preacher
TTITLE5=A Bar With No Beer
TTITLE6=Magnificent Music Machine
TTITLE7=Spokane Motel Blues
TTITLE8=More About John Henry
TTITLE9=The Monkey That Became President
TTITLE10=Trip To Hyden
TTITLE11=Who's Gonna Feed Them Hogs
EXTD=
EXTT0=
EXTT1=
EXTT2=
EXTT3=
EXTT4=
EXTT5=
EXTT6=
EXTT7=
EXTT8=
EXTT9=
EXTT10=
EXTT11=
PLAYORDER=
